<svg id="buffIcon.svg" xmlns="http://www.w3.org/2000/svg" width="255.688" height="255.688" viewBox="0 0 255.688 255.688">
  <defs>
    <style>
      .cls-1 {
        fill-rule: evenodd;
      }
    </style>
  </defs>
  <path id="アイコン用サークル" class="cls-1" d="M128.5,0.313A128.188,128.188,0,1,1,.313,128.5,128.188,128.188,0,0,1,128.5.313Zm0,27.666A100.521,100.521,0,1,1,27.979,128.5,100.521,100.521,0,0,1,128.5,27.979ZM253,261" transform="translate(-0.313 -0.313)"/>
  <path id="バフ" class="cls-1" d="M52.142,111.847L119.5,44.484a11.908,11.908,0,0,1,16.841,0l67.363,67.363c4.65,4.651,3.863,17.154-6.891,17.154l-39.215-.313v74.937a11.907,11.907,0,0,1-11.908,11.908H109.969a11.908,11.908,0,0,1-11.908-11.908V128.688L58.16,129C47.962,129,47.491,116.5,52.142,111.847Z" transform="translate(-0.313 -0.313)"/>
</svg>
