<svg id="butsuriAttackIcon.svg" xmlns="http://www.w3.org/2000/svg" width="255.688" height="255.688" viewBox="0 0 255.688 255.688">
  <defs>
    <style>
      .cls-1 {
        fill-rule: evenodd;
      }
    </style>
  </defs>
  <path id="アイコン用サークル" class="cls-1" d="M128.5,0.313A128.188,128.188,0,1,1,.313,128.5,128.188,128.188,0,0,1,128.5.313Zm0,27.666A100.521,100.521,0,1,1,27.979,128.5,100.521,100.521,0,0,1,128.5,27.979ZM253,261" transform="translate(-0.313 -0.313)"/>
  <path id="物理攻撃" class="cls-1" d="M110.322,188.1c-0.014,0-16.263-16.263-16.263-16.263L78.5,187.4s0.5,7.986-1.414,9.9c-3.094,0-16.112.859-17.678-.707S58.7,182.006,58.7,178.912c1.913-1.914,9.9-1.415,9.9-1.415l15.556-15.556S67.9,145.692,67.9,145.678c0-3.864,6.575-10.607,10.607-10.607-0.014,0,9.9,9.9,9.9,9.9l74.246-82.732,33.941-2.828-2.828,33.941L111.029,167.6s9.9,9.913,9.9,9.9C120.929,181.529,114.186,188.1,110.322,188.1Z" transform="translate(-0.313 -0.313)"/>
</svg>
