<svg id="mahouAttackIcon.svg" xmlns="http://www.w3.org/2000/svg" width="255.688" height="255.688" viewBox="0 0 255.688 255.688">
  <defs>
    <style>
      .cls-1 {
        fill-rule: evenodd;
      }
    </style>
  </defs>
  <path id="アイコン用サークル" class="cls-1" d="M128.5,0.313A128.188,128.188,0,1,1,.313,128.5,128.188,128.188,0,0,1,128.5.313Zm0,27.666A100.521,100.521,0,1,1,27.979,128.5,100.521,100.521,0,0,1,128.5,27.979ZM253,261" transform="translate(-0.313 -0.313)"/>
  <path id="魔法" class="cls-1" d="M129.133,98.541h40.789l-34.183,44.188h57.977l-81.578,75.913s-4.009-1.524-3.111-4.14c3.574-10.413,17.979-38.125,27.439-55.91H81.546L108.225,114.4H62.284L98.541,37.358h61.184L112.038,98.541h17.1Z" transform="translate(-0.313 -0.313)"/>
</svg>
