<svg id="coin_icon_01.svg" xmlns="http://www.w3.org/2000/svg" viewBox="0 0 211.407 211">
  <defs>
    <style>
      .cls-1 {
        stroke: #eee;
        stroke-linecap: round;
      }

      .cls-1, .cls-2 {
        fill: #eee;
        fill-rule: evenodd;
      }
    </style>
  </defs>
  <path id="楕円形_1" data-name="楕円形 1" class="cls-1" d="M56.42,219.672l-0.045.045L34.455,197.8l0.015-.015c26.909,26.266,84.833,11.334,129.739-33.572S224.047,61.379,197.781,34.47l0.015-.015,21.921,21.92-0.045.045c25.3,27.214,10.256,84.5-34.25,129S83.634,244.976,56.42,219.672Z" transform="translate(-25.031 -25.438)"/>
  <path id="長方形_1" data-name="長方形 1" class="cls-2" d="M199.918,59.86L183.654,86.023c-2.657,1.787-14.226,3.684-15.556,9.9-0.41,1.915,1.5,5.572.707,7.778l-7.071,8.485c-2.227,5.307-2.02,13.333-4.95,19.092-5.433,10.681-42.44,45.354-50.2,48.791-3.806,1.684-9.185,5.329-12.728,4.242l-7.071-7.071c-1.671-7.479-28.509-28.709-36.062-36.062l1.414-2.829c0.337-7.568,11.875-19.646,19.8-21.213,3.354-.663,7.859,1.646,11.314,0,6.967-3.319,11.955-12.069,17.678-17.678V98.044a38.8,38.8,0,0,1-5.657-7.071l2.828-2.828c3.493-.317,14.884-6.111,15.557-8.485,1.969-3.871,1.3-7.468,0-11.314,8.7-4.544,20.512-12.216,28.991-6.364-2.6,4.5-13.207,32.549-12.021,36.063l0.707-.707c1.4-.267,1.736-0.642,3.536-2.121,1.009-5.742,5.513-10.519,7.778-16.263,2.6-6.6,1.778-13.97,6.364-20.506,5.826,1.543,10.918,2.927,16.971,8.485a69.36,69.36,0,0,1-8.486,18.385l4.95,6.364c2.768-.827,3.833-1.122,7.071-4.243C171.879,74.035,188.876,66.937,199.918,59.86Zm-95.46,47.377c-6.724,4.546-14.484,13.016-21.213,19.8v1.414l1.414,1.414,1.414-1.414c3.887-.38,16.706-11.208,17.677-16.264C105.019,109.658,104.855,109.628,104.458,107.237Zm22.628,22.627c-4.26-.21-8.5-1.678-12.728,0-14.012,5.555-25.307,23.463-15.556,33.941,4.676,0.165,7.926,2.325,12.727,0,10.473-.91,23.6-18.99,19.8-26.87C130.959,134.486,129.322,132.366,127.086,129.864Zm-1.414,4.243c9.572,13.5-14.318,36.264-26.87,24.041-0.153-1.29.057-.445-0.707-2.121,2.959-14.1,6.861-16.184,19.8-24.042C120.044,132.542,123.273,133.8,125.672,134.107Z" transform="translate(-25.031 -25.438)"/>
  <path id="角丸長方形_1" data-name="角丸長方形 1" class="cls-2" d="M209,108c-18.963,46.3-52.733,79.764-99,99-16.205,6.737-45.584,12.651-63,2-19.5-11.922-27.447-42.023-18-71C69.9,16.475,249.052-25.677,209,108ZM43,129c-11.129,23.223-14.577,58.139,8,72,16.706,10.256,45.911,3.025,60-4,41.295-20.59,72.436-48.995,90-93C235.745-13.386,79.486,34.127,43,129Z" transform="translate(-25.031 -25.438)"/>
</svg>
