<svg xmlns="http://www.w3.org/2000/svg" width="202.813" height="248.031" viewBox="0 0 202.813 248.031">
  <defs>
    <style>
      .cls-1 {
        fill: #e74c3c;
        fill-rule: evenodd;
      }
    </style>
  </defs>
  <path id="fireIcon.svg" class="cls-1" d="M211,183c4.019,14.509-12.768,70.571-93,69-13.185-.163-69.23-3.622-86-55C11.634,134.606,75.959,112.059,48,56c26.95,5.8,28.153,29.716,27,42,24.979-33.624,74.06-46.715,60-94,45.724,18.656,44.621,54.161,41,72-4.278,21.749-21.075,37.036-38.362,49.458-0.046.013-.093,0.024-0.139,0.038l0.012,0.053,0.127-.091C159.788,119,184.974,134.477,199,148c6.948-2.392,26.323-9.948,30-29C238.446,158.494,206.385,163.081,211,183ZM94,165c0.181,12.458,9.555,19.524,15,21s26.022,4.085,26-10c0-9.692-9.552-4.388-13-1-1.916,1.538-10.322-3.664-13-6-4.567-3.983.9-18.513,8.836-29.187l-0.478-.546C104.3,148.143,94.217,156.037,94,165Z" transform="translate(-27.938 -4)"/>
</svg>
