<svg xmlns="http://www.w3.org/2000/svg" viewBox="0 0 166 222">
  <defs>
    <style>
      .cls-1 {
        fill: #eee;
        fill-rule: evenodd;
      }
    </style>
  </defs>
  <path id="hero_icon_01.svg" class="cls-1" d="M202,168l-2,5a22.084,22.084,0,0,1-5,4c-0.121.29,0,9,0,9l3,3v14s-43.331,6.823-51,35c-7.669,0-19,1-19,1s-11.331-1-19-1c-7.669-28.177-51-35-51-35V189l3-3s0.121-8.71,0-9a22.1,22.1,0,0,1-5-4l-2-5-9-4,1-33a47.386,47.386,0,0,1,9-4c6.747-52.967,41.346-66.365,62-73,1.016-4.029,11-37,11-37s9.984,32.971,11,37c20.654,6.635,55.253,20.033,62,73a47.379,47.379,0,0,1,9,4l1,33ZM69,185s35.993,6.6,59,6.028C151.007,191.6,187,185,187,185l1-6s-45.562,7.467-60,5.182C113.562,186.467,68,179,68,179Zm81-78c-11.626.339-7.541,28.879-7,30s3.675,9.862,7,10,8.618-2.849,9-10S161.626,106.661,150,107Zm-44,0c-11.626-.339-9.382,22.849-9,30s5.675,10.138,9,10,6.459-8.879,7-10S117.626,107.339,106,107Zm22-46.816C116.749,61.16,77.135,67.26,67,105a31.646,31.646,0,0,1,4,1s11.238-37.082,57-39.863C173.762,68.918,185,106,185,106a31.663,31.663,0,0,1,4-1C178.865,67.26,139.251,61.16,128,60.184Zm0,21.685C114.737,81.738,62,86.113,62,164c0,0.586,5,0,5,0s0.608-71.84,61-74.888C188.392,92.16,189,164,189,164s5,0.586,5,0C194,86.113,141.263,81.738,128,81.869Z" transform="translate(-45 -17)"/>
</svg>
