<svg xmlns="http://www.w3.org/2000/svg" viewBox="0 0 154.719 164.719">
  <defs>
    <style>
      .cls-1 {
        fill: #eee;
        fill-rule: evenodd;
      }
    </style>
  </defs>
  <path id="treasureB.svg" class="cls-1" d="M202.569,168.2H145.32l-6.577-12.63c-4.295,3.334-7.127,2.477-10.678,0-3.552,2.477-6.383,3.334-10.678,0L110.81,168.2H53.571s2.259,23.488-2.489-16.265,36.971-64.63,76.86-64.644c39.972-.014,81.937,24.445,77.115,64.644S202.569,168.2,202.569,168.2Zm-90.342,7.658c0,0.831,4.083,13.082,9.829,13.082s6.009,6.09,6.009,6.09a6.462,6.462,0,0,1,6.89-6.09c6.63,0,8.948-12.251,8.948-13.082,0,0,57.763-1.029,57.763-1.029l-11.017,71.863A6.245,6.245,0,0,1,184.661,252H71.48a6.245,6.245,0,0,1-5.988-5.311L54.474,174.826S112.227,176.13,112.227,175.855Z" transform="translate(-50.719 -87.281)"/>
</svg>
