<svg xmlns="http://www.w3.org/2000/svg" viewBox="0 0 154.719 249.969">
  <defs>
    <style>
      .cls-1 {
        fill: #eee;
        fill-rule: evenodd;
      }
    </style>
  </defs>
  <path id="treasureBrare.svg" class="cls-1" d="M205.058,151.932c-4.822,40.2-2.489,16.265-2.489,16.265H145.32l-6.577-12.63c-4.295,3.334-7.127,2.477-10.678,0-3.552,2.477-6.383,3.334-10.678,0L110.81,168.2H53.571s2.259,23.488-2.489-16.265c-4.561-38.193,33.769-62.651,72.16-64.524l-0.084-3.2H96.794c-2.909,0-5.58-1.7-5.973-3.83l-0.364-1.97c-0.41-2.222,1.726-4.058,4.778-4.058H122.9l-0.168-6.4a4.37,4.37,0,0,1,3.049-3.962,22.211,22.211,0,0,0,.118-2.417h-2.431c-0.37,6.656-5.141,11.135-9.759,11.135-2.769,0-4.523-1.646-4.7-3.763a4.015,4.015,0,0,1,4.1-3.992c1.914,0,2.944,1.468,3.507,3.276a8.313,8.313,0,0,0,2.964-6.656A11.555,11.555,0,0,0,114.433,63c-0.139-2.473,2.491-3.731,5.07-3.731-0.11-3.357-4.393-6.712-10.21-6.712-5.371,0-17.119,4.218-22.705-28.349,16.864,0,22.708,11.562,32.36,22.1,3.839,4.17,4.945,10.607,4.976,12.966h1.964c-0.024-5.686-3.41-11.667-6.944-17.062-1.688-2.618-3.711-5.883-3.851-8.873-0.173-3.685,1.608-7.865,4.3-12.583A202.1,202.1,0,0,0,128.72,2.016,199.188,199.188,0,0,0,137.8,20.748c2.63,4.719,4.356,8.9,4.134,12.584-0.18,2.99-2.245,6.255-3.968,8.873-3.607,5.4-7.069,11.376-7.169,17.062h1.964c0.062-2.359,1.253-8.8,5.147-12.966,9.79-10.534,14.9-22.1,32.322-22.1-6.015,32.567-17.383,28.349-22.749,28.349-5.817,0-10.144,3.355-10.3,6.712,2.578,0,5.192,1.258,5.02,3.731a11.441,11.441,0,0,0-5.127-1.42,8.2,8.2,0,0,0,2.878,6.656c0.584-1.808,1.635-3.276,3.549-3.276a3.953,3.953,0,0,1,4.046,3.992c-0.2,2.117-1.979,3.763-4.75,3.763-4.618,0-9.329-4.479-9.612-11.135h-2.43a22.885,22.885,0,0,0,.076,2.317c1.979,0.715,3.332,2.271,3.285,4.063l-0.169,6.4h27.6c3.052,0,5.188,1.836,4.778,4.058l-0.364,1.97c-0.393,2.133-3.064,3.83-5.973,3.83h-26.3l-0.085,3.237C171.77,89.616,209.653,113.629,205.058,151.932Zm-92.831,23.923c0,0.831,4.083,13.082,9.829,13.082s6.009,6.09,6.009,6.09a6.462,6.462,0,0,1,6.89-6.09c6.63,0,8.948-12.251,8.948-13.082,0,0,57.763-1.029,57.763-1.029l-11.017,71.863A6.245,6.245,0,0,1,184.661,252H71.48a6.245,6.245,0,0,1-5.988-5.311L54.474,174.826S112.227,176.13,112.227,175.855Z" transform="translate(-50.719 -2.031)"/>
</svg>
