<svg xmlns="http://www.w3.org/2000/svg" width="210.656" height="202.25" viewBox="0 0 210.656 202.25">
  <defs>
    <style>
      .cls-1 {
        fill: #2ecc71;
        fill-rule: evenodd;
      }
    </style>
  </defs>
  <path id="windIcon.svg" class="cls-1" d="M27,160C2.316,98.738,56.233,30.391,136,31s107.611,72.117,91,137c-20.426,79.785-166.477,96.787-167-8-0.407-81.551,98.372-74.126,93-21-5,40.074-41.814,32.467-41,16,0.26-5.261,2.823-7.178,8-11-33.094,6.513-13.167,41.6,15,36s45.017-29.831,44-59C176.193,32.179,39.983,54.529,44,156,44,165.537,36.083,169.29,27,160Z" transform="translate(-20.969 -31)"/>
</svg>
